<svg width="367" height="367" viewBox="0 0 367 367" fill="none" xmlns="http://www.w3.org/2000/svg">
  <rect x="0.707107" y="180.46" width="254.209" height="261.418" rx="86.5" transform="rotate(-45 0.707107 180.46)" stroke="black"/>
  <rect x="12.8787" y="179.224" width="236.068" height="242.736" rx="79" transform="rotate(-45 12.8787 179.224)" fill="black"/>
  <path d="M150.662 173.582H148.842L141.522 162.482V173.582H139.702V159.622H141.522L148.842 170.702V159.622H150.662V173.582ZM163.764 167.682C163.764 168.028 163.744 168.395 163.704 168.782H154.944C155.011 169.862 155.377 170.708 156.044 171.322C156.724 171.922 157.544 172.222 158.504 172.222C159.291 172.222 159.944 172.042 160.464 171.682C160.997 171.308 161.371 170.815 161.584 170.202H163.544C163.251 171.255 162.664 172.115 161.784 172.782C160.904 173.435 159.811 173.762 158.504 173.762C157.464 173.762 156.531 173.528 155.704 173.062C154.891 172.595 154.251 171.935 153.784 171.082C153.317 170.215 153.084 169.215 153.084 168.082C153.084 166.948 153.311 165.955 153.764 165.102C154.217 164.248 154.851 163.595 155.664 163.142C156.491 162.675 157.437 162.442 158.504 162.442C159.544 162.442 160.464 162.668 161.264 163.122C162.064 163.575 162.677 164.202 163.104 165.002C163.544 165.788 163.764 166.682 163.764 167.682ZM161.884 167.302C161.884 166.608 161.731 166.015 161.424 165.522C161.117 165.015 160.697 164.635 160.164 164.382C159.644 164.115 159.064 163.982 158.424 163.982C157.504 163.982 156.717 164.275 156.064 164.862C155.424 165.448 155.057 166.262 154.964 167.302H161.884ZM171.886 173.582L169.286 169.502L166.786 173.582H164.886L168.426 168.142L164.886 162.622H166.946L169.546 166.682L172.026 162.622H173.926L170.406 168.042L173.946 173.582H171.886ZM177.957 164.122V170.582C177.957 171.115 178.07 171.495 178.297 171.722C178.523 171.935 178.917 172.042 179.477 172.042H180.817V173.582H179.177C178.163 173.582 177.403 173.348 176.897 172.882C176.39 172.415 176.137 171.648 176.137 170.582V164.122H174.717V162.622H176.137V159.862H177.957V162.622H180.817V164.122H177.957Z" fill="white"/>
  <path d="M197.618 167.582L209.788 167.582L204.198 173.172L205.618 174.582L213.618 166.582L205.618 158.582L204.208 159.992L209.788 165.582L197.618 165.582L197.618 167.582Z" fill="white"/>
  
</svg>
